<?xml version="1.0" encoding="UTF-8" standalone="no" ?>
<!DOCTYPE svg PUBLIC "-//W3C//DTD SVG 1.1//EN" "http://www.w3.org/Graphics/SVG/1.1/DTD/svg11.dtd">
<svg xmlns="http://www.w3.org/2000/svg" xmlns:xlink="http://www.w3.org/1999/xlink" version="1.1" width="1080" height="1080" viewBox="0 0 1080 1080" xml:space="preserve">
<desc>Created with Fabric.js 5.2.4</desc>
<defs>
</defs>
<g transform="matrix(1 0 0 1 540 540)" id="34d47e8d-2403-468d-88d0-7a5afb23ee1e"  >
</g>
<g transform="matrix(1 0 0 1 540 540)" id="a477f706-2d35-42cb-a72c-98d866f7d799"  >
<rect style="stroke: none; stroke-width: 1; stroke-dasharray: none; stroke-linecap: butt; stroke-dashoffset: 0; stroke-linejoin: miter; stroke-miterlimit: 4; fill: rgb(255,255,255); fill-rule: nonzero; opacity: 1; visibility: hidden;" vector-effect="non-scaling-stroke"  x="-540" y="-540" rx="0" ry="0" width="1080" height="1080" />
</g>
<g transform="matrix(1 0 0 1 540 540)"  >
<g style="" vector-effect="non-scaling-stroke"   >
		<g transform="matrix(1.33 0 0 -1.33 -3.33 -3.33)"  >
<path style="stroke: none; stroke-width: 1; stroke-dasharray: none; stroke-linecap: butt; stroke-dashoffset: 0; stroke-linejoin: miter; stroke-miterlimit: 4; fill: rgb(16,15,13); fill-rule: nonzero; opacity: 1;" vector-effect="non-scaling-stroke"  transform=" translate(-1000, -1000)" d="M 0 0 L 2000 0 L 2000 2000 L 0 2000 Z" stroke-linecap="round" />
</g>
		<g transform="matrix(1.33 0 0 -1.33 262.91 476.59)" clip-path="url(#CLIPPATH_5)"  >
<clipPath id="CLIPPATH_5" >
	<path transform="matrix(1 0 0 1 -197.73 357.57) translate(-1000, -1000)" d="M 0 2000 L 2000 2000 L 2000 0 L 0 0 Z" stroke-linecap="round" />
</clipPath>
<path style="stroke: none; stroke-width: 1; stroke-dasharray: none; stroke-linecap: butt; stroke-dashoffset: 0; stroke-linejoin: miter; stroke-miterlimit: 4; fill: rgb(151,151,151); fill-rule: nonzero; opacity: 1;" vector-effect="non-scaling-stroke"  transform=" translate(166.59, 32.1)" d="M 0 0 L 0 -23.48 L 11.74 -23.48 C 22.243000000000002 -23.48 27.493000000000002 -19.567 27.493000000000002 -11.74 C 27.493000000000002 -7.33 26.081000000000003 -4.283 23.283 -2.575000000000001 C 20.483 -0.865 15.704 0 8.916 0 Z M -25.266 18.579 L 19.964 18.579 C 30.219 18.579 38.366 15.606000000000002 44.436 9.661000000000001 C 50.479 3.7180000000000017 53.501 -3.315999999999999 53.501 -11.442 C 53.501 -19.863 50.504 -27.070999999999998 44.534 -33.065 C 38.565 -39.059999999999995 30.415999999999997 -42.058 20.111 -42.058 L 0 -42.058 L 0 -82.777 L -25.266 -82.777 Z M -105.098 0 L -105.098 -23.034 L -91.821 -23.034 C -87.587 -23.034 -84.242 -22.044 -81.76599999999999 -20.037 C -79.28899999999999 -18.029999999999998 -78.05 -15.157 -78.05 -11.441999999999998 C -78.05 -3.813 -82.831 0 -92.393 0 Z M -130.362 18.579 L -85.15899999999999 18.579 C -75.351 18.579 -67.374 15.729000000000001 -61.230999999999995 10.058 C -55.111999999999995 4.359999999999999 -52.041999999999994 -2.5250000000000004 -52.041999999999994 -10.600000000000001 C -52.041999999999994 -21.797 -57.86299999999999 -30.07 -69.47999999999999 -35.443 C -64.353 -37.698 -59.49799999999999 -43.914 -54.91499999999999 -54.046 C -50.33299999999999 -64.2 -45.898999999999994 -73.787 -41.63999999999999 -82.777 L -69.28099999999999 -82.777 C -70.94099999999999 -79.433 -73.83999999999999 -73.06700000000001 -77.976 -63.704 C -82.088 -54.316 -85.629 -48.274 -88.527 -45.623000000000005 C -91.45 -42.949000000000005 -94.546 -41.611000000000004 -97.891 -41.611000000000004 L -105.098 -41.611000000000004 L -105.098 -82.777 L -130.362 -82.777 z M -210.369 -63.162 C -200.783 -63.162 -193.055 -60.313 -187.209 -54.591 C -181.339 -48.893 -178.416 -41.389 -178.416 -32.101 C -178.416 -22.762 -181.339 -15.256 -187.209 -9.559999999999999 C -193.055 -3.8869999999999987 -200.78300000000002 -1.038999999999998 -210.369 -1.038999999999998 C -220.004 -1.038999999999998 -227.757 -3.886999999999998 -233.652 -9.559999999999999 C -239.522 -15.255999999999998 -242.469 -22.762 -242.469 -32.101 C -242.469 -41.388999999999996 -239.522 -48.893 -233.652 -54.590999999999994 C -227.75699999999998 -60.312999999999995 -220.004 -63.16199999999999 -210.36899999999997 -63.16199999999999 M -210.36899999999997 20.065000000000012 C -193.10399999999998 20.065000000000012 -179.13499999999996 14.838000000000012 -168.43499999999997 4.387000000000011 C -157.75799999999998 -6.090999999999989 -152.40799999999996 -18.25499999999999 -152.40799999999996 -32.123999999999995 C -152.40799999999996 -46.218999999999994 -157.83399999999995 -58.428999999999995 -168.65699999999995 -68.75999999999999 C -179.48199999999994 -79.08699999999999 -193.40199999999996 -84.26299999999999 -210.36899999999997 -84.26299999999999 C -227.53299999999996 -84.26299999999999 -241.50199999999998 -79.11099999999999 -252.30299999999997 -68.83099999999999 C -263.07599999999996 -58.52699999999999 -268.479 -46.31699999999999 -268.479 -32.12399999999999 C -268.479 -18.20299999999999 -263.128 -6.0179999999999865 -252.403 4.410000000000011 C -241.701 14.838000000000012 -227.684 20.065000000000012 -210.369 20.065000000000012 M -287.85 -52.01399999999998 L -287.85 -74.15799999999999 C -300.53000000000003 -80.89499999999998 -313.808 -84.26299999999999 -327.678 -84.26299999999999 C -345.686 -84.26299999999999 -360.003 -79.28599999999999 -370.677 -69.303 C -381.353 -59.31999999999999 -386.67900000000003 -47.035 -386.67900000000003 -32.422999999999995 C -386.67900000000003 -17.807999999999993 -381.055 -5.423999999999996 -369.81100000000004 4.781000000000006 C -358.564 14.961000000000006 -343.877 20.065000000000005 -325.74600000000004 20.065000000000005 C -311.28000000000003 20.065000000000005 -299.045 17.092000000000006 -289.03700000000003 11.146000000000004 L -289.03700000000003 -11.441999999999997 C -301.32200000000006 -4.506999999999997 -312.96500000000003 -1.0389999999999961 -323.937 -1.0389999999999961 C -334.737 -1.0389999999999961 -343.555 -3.9369999999999963 -350.392 -9.758999999999997 C -357.251 -15.553999999999997 -360.67 -22.961 -360.67 -31.949999999999996 C -360.67 -40.991 -357.302 -48.44799999999999 -350.54 -54.343999999999994 C -343.802 -60.211999999999996 -335.134 -63.16199999999999 -324.581 -63.16199999999999 C -319.356 -63.16199999999999 -314.327 -62.465999999999994 -309.497 -61.10399999999999 C -304.64300000000003 -59.718999999999994 -297.435 -56.69599999999999 -287.85 -52.013999999999996" stroke-linecap="round" />
</g>
		<g transform="matrix(1.33 0 0 -1.33 -331.75 477.59)" clip-path="url(#CLIPPATH_6)"  >
<clipPath id="CLIPPATH_6" >
	<path transform="matrix(1 0 0 1 248.4 358.32) translate(-1000, -1000)" d="M 0 2000 L 2000 2000 L 2000 0 L 0 0 Z" stroke-linecap="round" />
</clipPath>
<path style="stroke: none; stroke-width: 1; stroke-dasharray: none; stroke-linecap: butt; stroke-dashoffset: 0; stroke-linejoin: miter; stroke-miterlimit: 4; fill: rgb(151,151,151); fill-rule: nonzero; opacity: 1;" vector-effect="non-scaling-stroke"  transform=" translate(169.43, -31.36)" d="M 0 0 L 0 -18.577 L -77.28 -18.577 L -77.28 82.779 L -52.015 82.779 L -52.015 0 Z M -104.378 -18.577 L -129.643 -18.577 L -129.643 82.779 L -104.378 82.779 z M -145.424 82.779 L -192.263 -20.061999999999998 L -203.211 -20.061999999999998 L -252.37800000000001 82.779 L -224.86 82.779 L -198.00900000000001 24.867999999999995 L -172.622 82.779 z M -264.096 0 L -264.096 -18.577 L -338.85 -18.577 L -338.85 82.779 L -265.13700000000006 82.779 L -265.13700000000006 64.2 L -313.58400000000006 64.2 L -313.58400000000006 42.949 L -267.36600000000004 42.949 L -267.36600000000004 24.372 L -313.58400000000006 24.372 L -313.58400000000006 0 Z" stroke-linecap="round" />
</g>
		<g transform="matrix(1.33 0 0 -1.33 -5.5 -132.34)" clip-path="url(#CLIPPATH_7)"  >
<clipPath id="CLIPPATH_7" >
	<path transform="matrix(1 0 0 1 3.36 -98.48) translate(-1000, -1000)" d="M 0 2000 L 2000 2000 L 2000 0 L 0 0 Z" stroke-linecap="round" />
</clipPath>
<path style="stroke: none; stroke-width: 1; stroke-dasharray: none; stroke-linecap: butt; stroke-dashoffset: 0; stroke-linejoin: miter; stroke-miterlimit: 4; fill: rgb(151,151,151); fill-rule: evenodd; opacity: 1;" vector-effect="non-scaling-stroke"  transform=" translate(-105.01, 68.84)" d="M 0 0 L 185.321 149.481 L 110.356 242.422 L -200.111 -8.004 L 100.024 -380.098 L 410.13 -129.962 L 334.767 -36.533 L 149.808 -185.725 L 112.444 -139.402 L 283.411 -1.5 L 207.118 93.086 L 36.151 -44.818 Z" stroke-linecap="round" />
</g>
</g>
</g>
</svg>